<svg xmlns="http://www.w3.org/2000/svg" viewBox="0 0 378.48 347.07"><defs><style>.cls-1,.cls-2,.cls-3,.cls-5{fill:#fff;}.cls-2,.cls-3{stroke:#fff;stroke-width:6px;}.cls-2{stroke-miterlimit:10;}.cls-3{stroke-linecap:round;stroke-linejoin:round;}.cls-4{fill:#d12938;}.cls-5{font-size:178.37px;font-family:PTSans-Bold, PT Sans;font-weight:700;}.cls-6{letter-spacing:-0.03em;}.cls-7{letter-spacing:-0.07em;}</style></defs><title>logoРесурс 1</title><g id="Слой_2" data-name="Слой 2"><g id="Слой_1-2" data-name="Слой 1"><path class="cls-1" d="M147.32,212.77h-.39a6,6,0,0,1-5.56-6.33c.59-9-1.36-11.37-1.67-11.68H97.37A97.37,97.37,0,1,1,97.37,0a96.44,96.44,0,0,1,42.68,9.83,6,6,0,0,1-5.23,10.71,84.62,84.62,0,0,0-37.46-8.62,85.46,85.46,0,1,0,0,170.92h42.29a11.43,11.43,0,0,1,8.26,3.28c4.26,4.07,6,11,5.34,21.08A6,6,0,0,1,147.32,212.77Zm-6.79-18.06h0Z"/><path class="cls-1" d="M157.3,172.37a6,6,0,0,1-3.91-10.45A85.68,85.68,0,0,0,178,125.84a6,6,0,0,1,11.23,4,97.64,97.64,0,0,1-28,41.11A5.93,5.93,0,0,1,157.3,172.37Z"/><path class="cls-2" d="M47.79,194.4"/><path class="cls-1" d="M135,289H58.83a6,6,0,1,1,0-11.91H135c3.37,0,6.33-2.1,6.33-4.5s-3-4.5-6.33-4.5H59.65c-10.06,0-18.24-7.36-18.24-16.42,0-8.81,7.75-16,17.44-16.4l.44,0h76.19c3.37,0,6.33-2.1,6.33-4.5s-3-4.5-6.33-4.5H59.28c-.71,0-16.4-.41-17.44-26.85a6,6,0,0,1,11.91-.47c.44,11.32,4,15,5.84,15.41h75.89c10.06,0,18.24,7.36,18.24,16.42s-8.18,16.42-18.24,16.42H59.65c-3.37,0-6.33,2.11-6.33,4.5s3,4.5,6.33,4.5h76.19a6.08,6.08,0,0,1,1,.08c9.23.81,16.46,7.83,16.46,16.34C153.26,281.6,145.08,289,135,289ZM59.41,214.29h0Z"/><path class="cls-3" d="M81.3,296.29"/><path class="cls-1" d="M97,313.34q-1.11,0-2.23-.11c-11.79-1.13-18.69-11.07-19-11.49A6,6,0,0,1,85.58,295c.13.18,4.23,5.84,10.37,6.38,4.52.4,9.44-2,14.66-7.22a6,6,0,1,1,8.4,8.45C111.84,309.74,104.43,313.34,97,313.34Z"/><text></text><path class="cls-4" d="M11.13,227.13h0Z"/><text class="cls-5" transform="translate(226.86 0.14) rotate(90)">RE<tspan class="cls-6" x="200.49" y="0">D</tspan><tspan class="cls-7" x="310.54" y="0">.</tspan></text></g></g></svg>