<svg xmlns="http://www.w3.org/2000/svg" viewBox="0 0 19.95 19.95"><defs><style>.cls-1{fill:none;stroke:#333;stroke-miterlimit:10;}</style></defs><title>skypeРесурс 6</title><g id="Слой_2" data-name="Слой 2"><g id="Слой_1-2" data-name="Слой 1"><path class="cls-1" d="M18.91,12a8.84,8.84,0,0,0,.21-1.91c0-.23,0-.45,0-.67a9,9,0,0,0-9-8.24,9.26,9.26,0,0,0-1.54.13A5.27,5.27,0,0,0,5.74.5,5.21,5.21,0,0,0,.5,5.67a5.09,5.09,0,0,0,.72,2.61,8.65,8.65,0,0,0-.14,1c0,.27,0,.53,0,.81a9,9,0,0,0,9,8.91,9.27,9.27,0,0,0,1.66-.15,5.29,5.29,0,0,0,2.48.61,5.21,5.21,0,0,0,5.24-5.17A5.09,5.09,0,0,0,18.91,12Zm-4.19,2.35a4.11,4.11,0,0,1-1.84,1.37,7.45,7.45,0,0,1-2.82.49,7,7,0,0,1-3.24-.67,4.22,4.22,0,0,1-1.49-1.3,2.82,2.82,0,0,1-.58-1.61,1.11,1.11,0,0,1,.38-.84,1.33,1.33,0,0,1,.94-.35,1.21,1.21,0,0,1,.8.27,2,2,0,0,1,.53.76,4.52,4.52,0,0,0,.52.91,2,2,0,0,0,.76.58,3.16,3.16,0,0,0,1.31.23,3.21,3.21,0,0,0,1.82-.47,1.3,1.3,0,0,0,.67-1.11,1.08,1.08,0,0,0-.35-.85,2.51,2.51,0,0,0-1-.53c-.41-.13-1-.26-1.66-.41a13.44,13.44,0,0,1-2.37-.7A3.91,3.91,0,0,1,5.58,9a2.51,2.51,0,0,1-.31-.5A3,3,0,0,1,5,7.22a2.86,2.86,0,0,1,.62-1.8,3.8,3.8,0,0,1,1.75-1.2A7.77,7.77,0,0,1,10,3.81a7.27,7.27,0,0,1,2.11.27,4.7,4.7,0,0,1,1.49.73,3.17,3.17,0,0,1,.88,1,2.12,2.12,0,0,1,.28,1,1.21,1.21,0,0,1-.37.86,1.25,1.25,0,0,1-.93.38,1.16,1.16,0,0,1-.78-.24,2.94,2.94,0,0,1-.54-.71,3,3,0,0,0-.81-1,2.58,2.58,0,0,0-1.51-.34,2.86,2.86,0,0,0-1.57.38A1,1,0,0,0,7.72,7a.77.77,0,0,0,.18.52,1.62,1.62,0,0,0,.54.4,4,4,0,0,0,.73.28l.16,0,1.1.26c.73.16,1.4.33,2,.52a6.43,6.43,0,0,1,1.55.7,3,3,0,0,1,1,1.06,3.14,3.14,0,0,1,.37,1.57A3.35,3.35,0,0,1,14.71,14.33Z"/></g></g></svg>