<svg xmlns="http://www.w3.org/2000/svg" viewBox="0 0 19.9 19.9"><defs><style>.cls-1{fill:#333;}</style></defs><title>viberРесурс 5</title><g id="Слой_2" data-name="Слой 2"><g id="Слой_1-2" data-name="Слой 1"><path class="cls-1" d="M19.9,9.45A9.77,9.77,0,0,0,.37,9.27c0,.14,0,.28,0,.43a9.6,9.6,0,0,0,1.4,5L0,19.9l5.41-1.72A9.79,9.79,0,0,0,19.9,9.7C19.9,9.61,19.9,9.53,19.9,9.45Zm-9.77,8.4A8.21,8.21,0,0,1,5.61,16.5l-3.16,1,1-3A8.07,8.07,0,0,1,1.92,9.7c0-.27,0-.53,0-.79a8.22,8.22,0,0,1,16.36.15c0,.21,0,.42,0,.64A8.19,8.19,0,0,1,10.13,17.85Zm4.93-5.92a2,2,0,0,1-.14,1.13,2.42,2.42,0,0,1-1.62,1.13c-.44,0-.44.36-2.88-.59A9.8,9.8,0,0,1,6.34,10a5.38,5.38,0,0,1-.85-1.65,3,3,0,0,1-.12-.81,2.65,2.65,0,0,1,.84-2,.88.88,0,0,1,.64-.3l.46,0c.14,0,.34-.08.54.4s.68,1.65.74,1.76a.44.44,0,0,1,0,.42,2.52,2.52,0,0,1-.15.28l-.09.11c-.12.14-.25.31-.36.42s-.24.25-.1.48a7.12,7.12,0,0,0,1.33,1.65A6.55,6.55,0,0,0,11.15,12c.24.12.38.1.52-.06s.6-.69.76-.93.32-.2.54-.12,1.4.65,1.64.77S15,11.83,15.07,11.93Z"/></g></g></svg>