<svg xmlns="http://www.w3.org/2000/svg" viewBox="0 0 24.7 14.88"><defs><style>.cls-1{fill:#fff;stroke:#333;stroke-miterlimit:10;}</style></defs><title>wkРесурс 4</title><g id="Слой_2" data-name="Слой 2"><g id="Слой_1-2" data-name="Слой 1"><path class="cls-1" d="M24,1.57a6.4,6.4,0,0,0-2.56-.23,14.87,14.87,0,0,0-2.56.12,15.86,15.86,0,0,0-1.51,2.79c-.81,1.55-1.81,3-2.44,3-.82,0-.63-2.56-.58-4.42,0-1.24-.17-1.63-.35-1.75A7.37,7.37,0,0,0,12.39.52S8.83.25,8.32,1.8c.68.09,1.85-.13,1.4,4.66,0,.23-.55,2.2-2.21-.47-.41-.66-2-4.64-2.56-4.66-1.85-.05-3.66-.13-4.31.23s.8,3.08,3.14,6.75c1.92,3,3.95,5.35,7.45,5.94a8.61,8.61,0,0,0,2.91-.12c.37-.18-.08-2.78,1.16-3,.56-.11,2.68,2.7,3.49,3a8.32,8.32,0,0,0,2.68.23c1.2,0,2.55.1,2.68-.7.29-1.8-3.61-4.13-3.72-5.24-.08-.79,1.43-2.26,2.21-3.37C23.59,3.7,24.62,2.07,24,1.57Z"/></g></g></svg>